<svg width="387px" height="78px" xmlns="http://www.w3.org/2000/svg"><g id="logotext"><g id="eco" style="fill:#fff"><path d="M86.468,46.89c-0.116,-1.767 -0.174,-3.839 -0.174,-6.214c0,-2.376 0.058,-4.447 0.174,-6.215c0.174,-2.317 0.724,-4.519 1.651,-6.605c0.928,-2.086 2.173,-3.882 3.738,-5.389c1.564,-1.506 3.433,-2.701 5.606,-3.585c2.173,-0.884 4.592,-1.325 7.257,-1.325c2.492,-0 4.824,0.47 6.997,1.412c2.173,0.942 4.056,2.216 5.649,3.824c1.594,1.608 2.854,3.491 3.781,5.65c0.927,2.158 1.39,4.454 1.39,6.888l0,5.692c0,0.464 -0.181,0.877 -0.543,1.239c-0.362,0.362 -0.775,0.543 -1.238,0.543l-28.247,0c-0.58,0 -0.869,0.304 -0.869,0.913c-0,2.144 0.253,4.114 0.76,5.91c0.507,1.796 1.289,3.361 2.347,4.693c1.057,1.333 2.404,2.376 4.041,3.129c1.637,0.753 3.614,1.13 5.932,1.13c1.709,0 3.238,-0.239 4.585,-0.717c1.347,-0.478 2.506,-1.115 3.476,-1.912c0.971,-0.797 1.768,-1.688 2.391,-2.673c0.622,-0.985 1.108,-2.013 1.455,-3.085c0.174,-0.58 0.457,-0.978 0.848,-1.195c0.391,-0.217 0.804,-0.326 1.238,-0.326l1.739,-0c0.463,-0 0.861,0.137 1.195,0.413c0.333,0.275 0.441,0.731 0.326,1.369c-0.29,1.97 -0.906,3.773 -1.847,5.41c-0.942,1.637 -2.173,3.042 -3.694,4.215c-1.521,1.174 -3.274,2.086 -5.259,2.738c-1.984,0.652 -4.135,0.978 -6.453,0.978c-2.665,-0 -5.084,-0.442 -7.257,-1.326c-2.173,-0.883 -4.042,-2.078 -5.606,-3.585c-1.565,-1.506 -2.81,-3.302 -3.738,-5.388c-0.927,-2.086 -1.477,-4.288 -1.651,-6.606Zm5.345,-9.952c0,0.58 0.305,0.87 0.913,0.87l23.988,-0c0.58,-0 0.884,-0.29 0.913,-0.87c-0,-2.259 -0.326,-4.266 -0.978,-6.018c-0.652,-1.753 -1.557,-3.238 -2.716,-4.455c-1.159,-1.216 -2.513,-2.136 -4.063,-2.759c-1.55,-0.623 -3.238,-0.935 -5.063,-0.935c-3.969,0 -7.127,1.217 -9.474,3.651c-2.346,2.433 -3.52,5.939 -3.52,10.516Z"/><path d="M128.449,46.89c-0.116,-1.767 -0.173,-3.839 -0.173,-6.214c-0,-2.376 0.057,-4.447 0.173,-6.215c0.174,-2.317 0.71,-4.519 1.608,-6.605c0.898,-2.086 2.115,-3.882 3.651,-5.389c1.535,-1.506 3.375,-2.701 5.519,-3.585c2.144,-0.884 4.548,-1.325 7.214,-1.325c2.491,-0 4.758,0.412 6.801,1.238c2.042,0.826 3.809,1.934 5.301,3.325c1.492,1.39 2.637,2.991 3.433,4.802c0.797,1.81 1.196,3.73 1.196,5.758c-0,0.463 -0.138,0.876 -0.413,1.238c-0.276,0.362 -0.645,0.543 -1.108,0.543l-2.043,0c-0.406,0 -0.789,-0.123 -1.152,-0.369c-0.362,-0.246 -0.543,-0.601 -0.543,-1.065c0,-1.303 -0.253,-2.578 -0.76,-3.824c-0.507,-1.246 -1.246,-2.347 -2.217,-3.303c-0.97,-0.956 -2.172,-1.716 -3.607,-2.281c-1.434,-0.565 -3.063,-0.848 -4.888,-0.848c-2.26,0 -4.158,0.392 -5.693,1.174c-1.536,0.782 -2.796,1.745 -3.781,2.89c-0.985,1.144 -1.717,2.404 -2.195,3.78c-0.478,1.377 -0.775,2.659 -0.891,3.846c-0.173,1.826 -0.26,3.897 -0.26,6.215c-0,2.317 0.087,4.389 0.26,6.214c0.116,1.188 0.413,2.47 0.891,3.846c0.478,1.376 1.21,2.636 2.195,3.781c0.985,1.144 2.245,2.108 3.781,2.89c1.535,0.782 3.433,1.173 5.693,1.173c1.97,0 3.664,-0.311 5.084,-0.934c1.42,-0.623 2.6,-1.427 3.542,-2.412c0.941,-0.985 1.637,-2.072 2.086,-3.259c0.449,-1.188 0.673,-2.376 0.673,-3.564c0,-0.579 0.181,-0.978 0.544,-1.195c0.362,-0.217 0.746,-0.326 1.151,-0.326l1.869,0c0.463,0 0.876,0.181 1.238,0.543c0.362,0.362 0.544,0.775 0.544,1.239c-0,2.028 -0.399,3.947 -1.196,5.758c-0.796,1.811 -1.941,3.411 -3.433,4.802c-1.492,1.391 -3.259,2.499 -5.301,3.324c-2.043,0.826 -4.31,1.239 -6.801,1.239c-2.666,-0 -5.07,-0.442 -7.214,-1.326c-2.144,-0.883 -3.984,-2.078 -5.519,-3.585c-1.536,-1.506 -2.753,-3.302 -3.651,-5.388c-0.898,-2.086 -1.434,-4.288 -1.608,-6.606Z"/><path d="M169.17,46.89c-0.116,-1.767 -0.173,-3.839 -0.173,-6.214c-0,-2.376 0.057,-4.447 0.173,-6.215c0.174,-2.317 0.71,-4.519 1.608,-6.605c0.898,-2.086 2.115,-3.882 3.651,-5.389c1.535,-1.506 3.375,-2.701 5.519,-3.585c2.144,-0.884 4.548,-1.325 7.214,-1.325c2.665,-0 5.062,0.441 7.192,1.325c2.129,0.884 3.969,2.079 5.519,3.585c1.55,1.507 2.766,3.303 3.65,5.389c0.884,2.086 1.427,4.288 1.63,6.605c0.116,1.768 0.174,3.839 0.174,6.215c-0,2.375 -0.058,4.447 -0.174,6.214c-0.174,2.318 -0.71,4.52 -1.608,6.606c-0.898,2.086 -2.122,3.882 -3.672,5.388c-1.55,1.507 -3.39,2.702 -5.519,3.585c-2.13,0.884 -4.527,1.326 -7.192,1.326c-2.666,-0 -5.07,-0.442 -7.214,-1.326c-2.144,-0.883 -3.984,-2.078 -5.519,-3.585c-1.536,-1.506 -2.753,-3.302 -3.651,-5.388c-0.898,-2.086 -1.434,-4.288 -1.608,-6.606Zm5.432,-12.429c-0.173,1.826 -0.26,3.897 -0.26,6.215c-0,2.317 0.087,4.389 0.26,6.214c0.116,1.188 0.413,2.47 0.891,3.846c0.478,1.376 1.21,2.636 2.195,3.781c0.985,1.144 2.245,2.108 3.781,2.89c1.535,0.782 3.433,1.173 5.693,1.173c2.201,0 4.085,-0.391 5.649,-1.173c1.564,-0.782 2.839,-1.746 3.824,-2.89c0.985,-1.145 1.717,-2.405 2.195,-3.781c0.478,-1.376 0.775,-2.658 0.891,-3.846c0.173,-1.825 0.26,-3.897 0.26,-6.214c0,-2.318 -0.087,-4.389 -0.26,-6.215c-0.116,-1.187 -0.413,-2.469 -0.891,-3.846c-0.478,-1.376 -1.21,-2.636 -2.195,-3.78c-0.985,-1.145 -2.26,-2.108 -3.824,-2.89c-1.564,-0.782 -3.448,-1.174 -5.649,-1.174c-2.26,0 -4.158,0.392 -5.693,1.174c-1.536,0.782 -2.796,1.745 -3.781,2.89c-0.985,1.144 -1.717,2.404 -2.195,3.78c-0.478,1.377 -0.775,2.659 -0.891,3.846Z"/></g><g id="mash" style="fill:#c2c2c2"><path d="M213.238,61.144l-0,-40.936c-0,-0.464 0.173,-0.877 0.521,-1.239c0.348,-0.362 0.768,-0.543 1.26,-0.543l1.434,-0c0.406,-0 0.812,0.203 1.217,0.608c0.29,0.29 0.601,0.601 0.934,0.935c0.334,0.333 0.761,0.499 1.282,0.499c0.725,0 1.398,-0.145 2.021,-0.434c0.623,-0.29 1.304,-0.63 2.043,-1.022c0.738,-0.391 1.571,-0.731 2.498,-1.021c0.928,-0.29 2.072,-0.434 3.434,-0.434c1.303,-0 2.462,0.144 3.476,0.434c1.014,0.29 1.905,0.659 2.673,1.108c0.767,0.449 1.463,0.906 2.086,1.369c0.623,0.464 1.166,0.913 1.629,1.347c0.667,0.522 1.253,0.783 1.76,0.783c0.507,-0 1.079,-0.261 1.717,-0.783c0.463,-0.405 1.043,-0.847 1.738,-1.325c0.695,-0.478 1.514,-0.942 2.455,-1.391c0.942,-0.449 2.036,-0.818 3.281,-1.108c1.246,-0.29 2.666,-0.434 4.259,-0.434c2.318,-0 4.368,0.384 6.149,1.151c1.782,0.768 3.267,1.847 4.455,3.238c1.188,1.39 2.078,3.035 2.672,4.932c0.594,1.898 0.891,3.948 0.891,6.149l0,28.117c0,0.464 -0.181,0.876 -0.543,1.239c-0.362,0.362 -0.775,0.543 -1.238,0.543l-1.695,-0c-0.464,-0 -0.877,-0.181 -1.239,-0.543c-0.362,-0.363 -0.543,-0.775 -0.543,-1.239l-0,-28.117c-0,-3.331 -0.891,-5.874 -2.673,-7.626c-1.781,-1.753 -4.15,-2.63 -7.105,-2.63c-1.362,0 -2.665,0.268 -3.911,0.804c-1.246,0.536 -2.347,1.268 -3.303,2.195c-0.956,0.927 -1.716,2.014 -2.281,3.259c-0.565,1.246 -0.848,2.579 -0.848,3.998l0,28.117c0,0.464 -0.173,0.876 -0.521,1.239c-0.348,0.362 -0.768,0.543 -1.26,0.543l-1.565,-0c-0.463,-0 -0.876,-0.181 -1.238,-0.543c-0.363,-0.363 -0.544,-0.775 -0.544,-1.239l0,-28.117c0,-1.13 -0.239,-2.303 -0.717,-3.52c-0.478,-1.216 -1.166,-2.332 -2.064,-3.346c-0.898,-1.014 -1.984,-1.832 -3.259,-2.455c-1.275,-0.623 -2.709,-0.935 -4.302,-0.935c-1.362,0 -2.637,0.297 -3.825,0.891c-1.187,0.594 -2.223,1.369 -3.107,2.325c-0.883,0.956 -1.579,2.014 -2.086,3.173c-0.507,1.159 -0.76,2.303 -0.76,3.433l-0,28.551c-0,0.464 -0.181,0.876 -0.543,1.239c-0.363,0.362 -0.775,0.543 -1.239,0.543l-1.695,-0c-0.463,-0 -0.876,-0.181 -1.238,-0.543c-0.362,-0.363 -0.543,-0.775 -0.543,-1.239Z"/><path d="M275.6,49.584c0,-1.825 0.326,-3.541 0.978,-5.149c0.652,-1.608 1.601,-2.991 2.846,-4.15c1.246,-1.159 2.789,-2.065 4.628,-2.716c1.84,-0.652 3.919,-0.978 6.237,-0.978l12.732,-0c0.58,-0 0.87,-0.304 0.87,-0.913l-0,-3.476c-0,-2.897 -1,-5.251 -2.999,-7.062c-1.999,-1.811 -4.577,-2.716 -7.735,-2.716c-1.362,-0 -2.673,0.195 -3.933,0.586c-1.26,0.392 -2.361,0.928 -3.303,1.608c-0.941,0.681 -1.709,1.492 -2.303,2.434c-0.594,0.942 -0.891,2.006 -0.891,3.194c0,0.782 -0.239,1.231 -0.717,1.347c-0.478,0.116 -0.92,0.174 -1.325,0.174l-1.261,0c-1.188,0 -1.781,-0.594 -1.781,-1.782c-0,-2.086 0.449,-3.896 1.347,-5.432c0.898,-1.535 2.086,-2.824 3.563,-3.867c1.478,-1.043 3.136,-1.826 4.976,-2.347c1.84,-0.522 3.716,-0.782 5.628,-0.782c2.202,-0 4.259,0.289 6.171,0.869c1.912,0.579 3.599,1.477 5.062,2.694c1.463,1.217 2.622,2.745 3.477,4.585c0.855,1.84 1.282,4.034 1.282,6.584l-0,28.855c-0,0.464 -0.174,0.876 -0.522,1.239c-0.347,0.362 -0.767,0.543 -1.26,0.543l-0.782,-0c-0.579,-0 -1,-0.203 -1.26,-0.609c-0.232,-0.347 -0.435,-0.746 -0.609,-1.195c-0.174,-0.449 -0.565,-0.673 -1.173,-0.673c-0.406,-0 -0.934,0.174 -1.586,0.521c-0.652,0.348 -1.456,0.732 -2.412,1.152c-0.956,0.42 -2.072,0.804 -3.346,1.151c-1.275,0.348 -2.738,0.522 -4.389,0.522c-2.724,-0 -5.114,-0.384 -7.171,-1.152c-2.057,-0.767 -3.752,-1.803 -5.084,-3.107c-1.333,-1.304 -2.325,-2.817 -2.977,-4.541c-0.652,-1.724 -0.978,-3.527 -0.978,-5.411Zm5.258,-0.086c0,1.593 0.283,2.969 0.848,4.128c0.565,1.159 1.332,2.122 2.303,2.89c0.971,0.768 2.079,1.347 3.324,1.738c1.246,0.391 2.593,0.587 4.042,0.587c4.085,-0 7.236,-0.949 9.452,-2.847c2.216,-1.897 3.324,-4.657 3.324,-8.278l0,-5.345c0,-0.58 -0.289,-0.884 -0.869,-0.913l-12.993,0c-2.492,0 -4.687,0.688 -6.584,2.064c-1.898,1.376 -2.847,3.368 -2.847,5.976Z"/><path d="M316.191,49.584l-0,-1.173c-0,-0.463 0.174,-0.876 0.521,-1.238c0.348,-0.363 0.753,-0.544 1.217,-0.544l1.695,0c0.463,0 0.876,0.181 1.238,0.544c0.362,0.362 0.544,0.775 0.544,1.238l-0,1.173c-0,1.362 0.311,2.593 0.934,3.694c0.623,1.101 1.47,2.05 2.542,2.847c1.072,0.796 2.332,1.419 3.781,1.868c1.448,0.449 3.013,0.674 4.693,0.674c3.68,-0 6.569,-0.833 8.67,-2.499c2.1,-1.666 3.151,-3.715 3.151,-6.149c-0,-1.42 -0.384,-2.607 -1.152,-3.563c-0.768,-0.956 -1.746,-1.746 -2.933,-2.369c-1.188,-0.623 -2.506,-1.108 -3.955,-1.456c-1.449,-0.347 -2.854,-0.608 -4.215,-0.782c-1.97,-0.29 -3.875,-0.688 -5.715,-1.195c-1.84,-0.507 -3.455,-1.224 -4.845,-2.151c-1.391,-0.927 -2.521,-2.086 -3.39,-3.477c-0.869,-1.39 -1.304,-3.129 -1.304,-5.214c0,-1.71 0.435,-3.325 1.304,-4.846c0.869,-1.521 2.028,-2.825 3.477,-3.911c1.448,-1.086 3.121,-1.941 5.019,-2.564c1.897,-0.623 3.86,-0.934 5.888,-0.934c2.028,-0 3.955,0.289 5.78,0.869c1.825,0.579 3.455,1.448 4.889,2.607c1.434,1.159 2.578,2.557 3.433,4.194c0.855,1.637 1.282,3.498 1.282,5.584c0,0.666 -0.174,1.144 -0.521,1.434c-0.348,0.29 -0.768,0.435 -1.261,0.435l-1.695,-0c-0.463,-0 -0.876,-0.152 -1.238,-0.457c-0.362,-0.304 -0.543,-0.775 -0.543,-1.412c-0,-2.202 -0.906,-4.136 -2.716,-5.801c-1.811,-1.666 -4.281,-2.499 -7.41,-2.499c-3.158,-0 -5.671,0.746 -7.54,2.238c-1.868,1.492 -2.803,3.179 -2.803,5.063c0,1.245 0.312,2.252 0.935,3.02c0.623,0.768 1.412,1.39 2.368,1.868c0.956,0.478 2.028,0.855 3.216,1.13c1.188,0.276 2.318,0.5 3.39,0.674c1.825,0.348 3.773,0.789 5.845,1.325c2.071,0.536 3.969,1.29 5.692,2.26c1.724,0.971 3.151,2.26 4.281,3.868c1.13,1.608 1.695,3.628 1.695,6.062c-0,1.912 -0.399,3.694 -1.195,5.345c-0.797,1.652 -1.956,3.1 -3.477,4.346c-1.521,1.246 -3.332,2.238 -5.432,2.977c-2.1,0.739 -4.425,1.108 -6.975,1.108c-2.26,-0 -4.411,-0.326 -6.453,-0.978c-2.043,-0.652 -3.868,-1.586 -5.476,-2.803c-1.608,-1.217 -2.882,-2.694 -3.824,-4.432c-0.942,-1.739 -1.412,-3.738 -1.412,-5.998Z"/><path d="M354.782,61.144l0,-59.362c0,-0.464 0.181,-0.877 0.543,-1.239c0.363,-0.362 0.775,-0.543 1.239,-0.543l1.695,-0c0.463,-0 0.876,0.181 1.238,0.543c0.363,0.362 0.544,0.775 0.544,1.239l-0,16.122c-0,0.406 0.159,0.819 0.478,1.239c0.318,0.42 0.811,0.63 1.477,0.63c0.406,-0 0.891,-0.123 1.456,-0.369c0.565,-0.247 1.238,-0.5 2.021,-0.761c0.782,-0.261 1.658,-0.507 2.629,-0.739c0.97,-0.231 2.108,-0.347 3.411,-0.347c2.318,-0 4.44,0.412 6.367,1.238c1.926,0.826 3.556,1.948 4.889,3.368c1.332,1.42 2.368,3.064 3.107,4.932c0.739,1.869 1.108,3.846 1.108,5.932l-0,28.117c-0,0.464 -0.174,0.876 -0.522,1.239c-0.347,0.362 -0.753,0.543 -1.216,0.543l-1.695,-0c-0.464,-0 -0.877,-0.181 -1.239,-0.543c-0.362,-0.363 -0.543,-0.775 -0.543,-1.239l0,-28.117c0,-3.013 -1.014,-5.475 -3.042,-7.387c-2.028,-1.912 -4.635,-2.869 -7.822,-2.869c-1.594,0 -3.064,0.254 -4.411,0.761c-1.347,0.507 -2.492,1.21 -3.433,2.108c-0.942,0.898 -1.681,1.941 -2.216,3.129c-0.536,1.187 -0.804,2.462 -0.804,3.824l-0,28.551c-0,0.464 -0.181,0.876 -0.544,1.239c-0.362,0.362 -0.775,0.543 -1.238,0.543l-1.695,-0c-0.464,-0 -0.876,-0.181 -1.239,-0.543c-0.362,-0.363 -0.543,-0.775 -0.543,-1.239Z"/></g></g><g id="logomark" style="fill:#fff"><path d="M31.248,76.786c0.198,-19.973 16.442,-36.104 36.453,-36.104c1.767,-0 3.506,0.126 5.206,0.369c-0.198,19.973 -16.442,36.104 -36.453,36.104c-1.767,0 -3.506,-0.125 -5.206,-0.369Z"/><path d="M15.746,10.66c5.883,-4.069 13.017,-6.452 20.708,-6.452c13.494,-0 25.275,7.335 31.578,18.237c-6.303,10.902 -18.084,18.236 -31.578,18.236c-1.767,0 -3.506,-0.125 -5.207,-0.369l-0.002,-0.018c-0.133,-12.28 -6.263,-22.8 -15.499,-29.634Z"/><path d="M15.746,10.66c2.122,1.57 4.079,3.334 5.837,5.269c5.899,6.491 9.56,14.906 9.662,24.365c-11.2,-1.685 -20.552,-8.46 -26.386,-17.818c2.712,-4.701 6.442,-8.74 10.887,-11.816Z" style="fill:#c2c2c2"/><path d="M4.859,22.477c5.832,9.355 15.185,16.132 26.385,17.817c0.002,0.13 0.002,0.259 0.002,0.388c0,12.394 -6.179,23.345 -15.623,29.936c-9.444,-6.591 -15.623,-17.542 -15.623,-29.936c0,-6.63 1.768,-12.846 4.859,-18.205Z"/></g></svg>